# xmcd
#
# Track frame offsets: 
#        150
#        20114
#        37961
#        54155
#        71324
#        97128
#        116730
#        148035
#        176582
#        194441
#        209276
#        225701
#
# Disc length: 3189 seconds
#
# Revision: 1
# Processed by: cddbd v1.5.2PL0 Copyright (c) Steve Scherf et al.
# Submitted via: ExactAudioCopy v0.99pb5
#
DISCID=aa0c730c
DTITLE=Chuck Berry - Bio
DYEAR=1973
DGENRE=Blues
TTITLE0=Bio
TTITLE1=Hello Little Girl, Goodbye
TTITLE2=Woodpecker
TTITLE3=Rain Eyes
TTITLE4=Aimlessly Driftin'
TTITLE5=Got it And Gone
TTITLE6=Talkin' About My Buddy
TTITLE7=Blues [Bonus]
TTITLE8=Annie Lou [Bonus]
TTITLE9=Me and My Country [Bonus]
TTITLE10=One Sixty Nine AM [Bonus]
TTITLE11=Roll Away [Bonus]
EXTD=
EXTT0=
EXTT1=
EXTT2=
EXTT3=
EXTT4=
EXTT5=
EXTT6=
EXTT7=
EXTT8=
EXTT9=
EXTT10=
EXTT11=
PLAYORDER=
